<svg id="Capa_1" data-name="Capa 1" xmlns="http://www.w3.org/2000/svg" viewBox="0 0 1151 538">
    <defs>
        <style>
            .cls-1{fill:#ed1c24;}
            .cls-2{fill:#f15a24;}
            .cls-3{fill:#f7931e;}
            .cls-4{fill:#fbb03b;}
            .cls-5{fill:#c1272d;}
        </style>
    </defs>
    <title>Sin título-1</title>
    <polygon class="cls-1" points="645 0 1014 18 1057 173 805 224 744 102 600 144 645 0"/>
    <polygon class="cls-2" points="600 153 740 112 794 224 794 339 690 387 414 387 487 288 600 257 600 153"/>
    <polygon class="cls-3" points="802 232 802 339 913 400 1067 400 1151 249 1058 180 802 232"/>
    <polygon class="cls-4" points="414 400 687 400 794 347 913 410 1066 410 994 538 628 538 414 400"/>
    <polygon class="cls-5" points="406 383 483 283 593 252 590 148 634 0 210 0 0 112 213 233 336 387 406 383"/>
</svg>